<svg id="Layer_1" data-name="Layer 1" xmlns="http://www.w3.org/2000/svg" viewBox="0 0 512 512"><defs><style>.cls-1{fill:#141f38;}</style></defs><title>notebook-outline</title><path class="cls-1" d="M486.4,332.8v-192a64,64,0,0,0-64-64H89.6a64,64,0,0,0-64,64v192H0V352a83.2,83.2,0,0,0,83.2,83.2H428.8A83.2,83.2,0,0,0,512,352V332.8ZM51.2,140.8a38.44,38.44,0,0,1,38.4-38.4H422.4a38.44,38.44,0,0,1,38.4,38.4v192H51.2ZM428.8,409.6H83.2A57.68,57.68,0,0,1,26,358.4H170.73A44.86,44.86,0,0,0,211.2,384h89.6a44.86,44.86,0,0,0,40.47-25.6H486A57.68,57.68,0,0,1,428.8,409.6Z"/></svg>