<?xml version="1.0" encoding="UTF-8"?>
<!DOCTYPE svg PUBLIC "-//W3C//DTD SVG 1.1//EN" "http://www.w3.org/Graphics/SVG/1.1/DTD/svg11.dtd">
<svg xmlns="http://www.w3.org/2000/svg" version="1.1" width="2070px" height="2070px" style="shape-rendering:geometricPrecision; text-rendering:geometricPrecision; image-rendering:optimizeQuality; fill-rule:evenodd; clip-rule:evenodd" xmlns:xlink="http://www.w3.org/1999/xlink">
<g><path style="opacity:0.987" fill="#21aee4" d="M 892.5,745.5 C 916.502,745.333 940.502,745.5 964.5,746C 973.333,748.167 978.833,753.667 981,762.5C 981.667,810.5 981.667,858.5 981,906.5C 950.286,940.377 919.786,974.377 889.5,1008.5C 882.043,992.341 877.543,975.341 876,957.5C 875.333,891.5 875.333,825.5 876,759.5C 878.981,751.674 884.481,747.007 892.5,745.5 Z"/></g>
<g><path style="opacity:0.984" fill="#21aee4" d="M 1084.5,745.5 C 1108.5,745.333 1132.5,745.5 1156.5,746C 1165.56,747.435 1171.06,752.602 1173,761.5C 1173.67,779.5 1173.67,797.5 1173,815.5C 1138.63,854.918 1103.79,893.918 1068.5,932.5C 1067.33,875.503 1067.17,818.503 1068,761.5C 1070.79,753.211 1076.29,747.878 1084.5,745.5 Z"/></g>
<g><path style="opacity:0.984" fill="#20ace2" d="M 1173.5,892.5 C 1133.83,933.333 1094.67,974.666 1056,1016.5C 1043.61,986.659 1031.61,956.659 1020,926.5C 1019.31,925.643 1018.48,924.977 1017.5,924.5C 984.449,956.886 951.116,988.886 917.5,1020.5C 917.5,1019.83 917.5,1019.17 917.5,1018.5C 952.601,978.636 987.934,938.969 1023.5,899.5C 1035.5,926.175 1047,953.175 1058,980.5C 1058.42,981.956 1059.26,982.456 1060.5,982C 1107.83,929 1155.17,876 1202.5,823C 1198.33,818.833 1194.17,814.667 1190,810.5C 1189.57,809.4 1190.07,808.733 1191.5,808.5C 1210.73,802.918 1230.06,798.084 1249.5,794C 1244.09,813.122 1238.76,832.289 1233.5,851.5C 1233,852.521 1232.33,852.688 1231.5,852C 1228,848.5 1224.5,845 1221,841.5C 1205.33,858.671 1189.5,875.671 1173.5,892.5 Z"/></g>
<g><path style="opacity:0.993" fill="#1054a1" d="M 1173.5,892.5 C 1173.88,915.194 1173.38,937.861 1172,960.5C 1163.08,1031.75 1123.25,1073.25 1052.5,1085C 1024.84,1088.26 997.507,1086.59 970.5,1080C 943.278,1071.76 920.612,1056.76 902.5,1035C 903.044,1034.28 903.711,1033.78 904.5,1033.5C 909.167,1029.5 913.5,1025.17 917.5,1020.5C 951.116,988.886 984.449,956.886 1017.5,924.5C 1018.48,924.977 1019.31,925.643 1020,926.5C 1031.61,956.659 1043.61,986.659 1056,1016.5C 1094.67,974.666 1133.83,933.333 1173.5,892.5 Z"/></g>
<g><path style="opacity:1" fill="#1f99d4" d="M 917.5,1018.5 C 917.5,1019.17 917.5,1019.83 917.5,1020.5C 913.5,1025.17 909.167,1029.5 904.5,1033.5C 908.466,1028.2 912.8,1023.2 917.5,1018.5 Z"/></g>
<g><path style="opacity:0.961" fill="#1053a1" d="M 649.5,1116.5 C 657.167,1116.5 664.833,1116.5 672.5,1116.5C 672.5,1164.5 672.5,1212.5 672.5,1260.5C 664.833,1260.5 657.167,1260.5 649.5,1260.5C 649.5,1212.5 649.5,1164.5 649.5,1116.5 Z"/></g>
<g><path style="opacity:0.957" fill="#1053a1" d="M 1312.5,1118.5 C 1319.5,1118.5 1326.5,1118.5 1333.5,1118.5C 1333.5,1165.5 1333.5,1212.5 1333.5,1259.5C 1326.5,1259.5 1319.5,1259.5 1312.5,1259.5C 1312.67,1254.16 1312.5,1248.82 1312,1243.5C 1299.29,1258.74 1283.12,1264.24 1263.5,1260C 1238.49,1251.21 1225.83,1233.38 1225.5,1206.5C 1226.68,1173.99 1243.35,1155.99 1275.5,1152.5C 1290.23,1152.95 1302.4,1158.62 1312,1169.5C 1312.5,1152.5 1312.67,1135.5 1312.5,1118.5 Z M 1275.5,1170.5 C 1299.24,1171.07 1311.57,1183.24 1312.5,1207C 1311.67,1228.19 1300.84,1240.36 1280,1243.5C 1262.46,1241.4 1251.79,1231.73 1248,1214.5C 1244.86,1191.73 1254.02,1177.07 1275.5,1170.5 Z"/></g>
<g><path style="opacity:0.946" fill="#1053a1" d="M 1035.5,1124.5 C 1060.52,1123.93 1080.35,1133.59 1095,1153.5C 1097.07,1156.97 1098.57,1160.64 1099.5,1164.5C 1091.14,1164.83 1082.81,1164.5 1074.5,1163.5C 1066.65,1149.57 1054.65,1142.91 1038.5,1143.5C 1016.91,1143.88 1002.41,1154.21 995,1174.5C 989.588,1193.18 992.255,1210.51 1003,1226.5C 1016.24,1240.8 1032.41,1245.63 1051.5,1241C 1061.77,1237.71 1069.43,1231.38 1074.5,1222C 1082.83,1221.5 1091.16,1221.33 1099.5,1221.5C 1093.75,1238.41 1082.42,1249.91 1065.5,1256C 1038.92,1265.07 1014.59,1261.07 992.5,1244C 974.429,1225.78 967.595,1203.95 972,1178.5C 980.495,1145.5 1001.66,1127.5 1035.5,1124.5 Z"/></g>
<g><path style="opacity:0.96" fill="#1053a1" d="M 516.5,1125.5 C 524.167,1125.5 531.833,1125.5 539.5,1125.5C 539.045,1157.54 539.545,1189.54 541,1221.5C 545.31,1235.28 554.81,1241.95 569.5,1241.5C 583.723,1241.99 593.223,1235.65 598,1222.5C 599.463,1190.21 599.963,1157.87 599.5,1125.5C 607.167,1125.5 614.833,1125.5 622.5,1125.5C 622.667,1156.84 622.5,1188.17 622,1219.5C 619.071,1239.2 608.237,1252.37 589.5,1259C 569.535,1264.52 550.868,1261.85 533.5,1251C 523.046,1241.92 517.546,1230.42 517,1216.5C 516.5,1186.17 516.333,1155.84 516.5,1125.5 Z"/></g>
<g><path style="opacity:0.958" fill="#1053a1" d="M 704.5,1126.5 C 712.167,1126.5 719.833,1126.5 727.5,1126.5C 727.5,1135.5 727.5,1144.5 727.5,1153.5C 736.167,1153.5 744.833,1153.5 753.5,1153.5C 753.5,1159.83 753.5,1166.17 753.5,1172.5C 744.833,1172.5 736.167,1172.5 727.5,1172.5C 727.033,1194.23 727.533,1215.9 729,1237.5C 731.042,1239.6 733.542,1240.77 736.5,1241C 742.157,1241.5 747.824,1241.67 753.5,1241.5C 753.5,1247.83 753.5,1254.17 753.5,1260.5C 743.111,1260.87 732.777,1260.37 722.5,1259C 712.447,1256.28 706.613,1249.78 705,1239.5C 704.5,1217.17 704.333,1194.84 704.5,1172.5C 700.167,1172.5 695.833,1172.5 691.5,1172.5C 691.5,1166.17 691.5,1159.83 691.5,1153.5C 695.833,1153.5 700.167,1153.5 704.5,1153.5C 704.5,1144.5 704.5,1135.5 704.5,1126.5 Z"/></g>
<g><path style="opacity:0.958" fill="#1053a1" d="M 820.5,1151.5 C 822.833,1151.5 825.167,1151.5 827.5,1151.5C 827.5,1159.5 827.5,1167.5 827.5,1175.5C 810.016,1172.47 799.516,1179.47 796,1196.5C 795.5,1217.83 795.333,1239.16 795.5,1260.5C 787.833,1260.5 780.167,1260.5 772.5,1260.5C 772.5,1224.83 772.5,1189.17 772.5,1153.5C 780.167,1153.5 787.833,1153.5 795.5,1153.5C 795.334,1157.85 795.501,1162.18 796,1166.5C 802.107,1158.03 810.274,1153.03 820.5,1151.5 Z"/></g>
<g><path style="opacity:0.956" fill="#1053a1" d="M 882.5,1151.5 C 899.841,1149.45 914.341,1154.78 926,1167.5C 926.499,1162.85 926.666,1158.18 926.5,1153.5C 934.167,1153.5 941.833,1153.5 949.5,1153.5C 949.5,1189.17 949.5,1224.83 949.5,1260.5C 941.833,1260.5 934.167,1260.5 926.5,1260.5C 926.666,1255.82 926.499,1251.15 926,1246.5C 909.377,1262.52 890.21,1266.36 868.5,1258C 848.866,1246.58 839.199,1229.41 839.5,1206.5C 839.76,1176.91 854.094,1158.58 882.5,1151.5 Z M 890.5,1171.5 C 913.199,1172.36 925.199,1184.2 926.5,1207C 925.038,1227.29 914.372,1239.12 894.5,1242.5C 874.182,1239.26 863.515,1227.26 862.5,1206.5C 863.091,1187.6 872.424,1175.93 890.5,1171.5 Z"/></g>
<g><path style="opacity:0.951" fill="#1053a1" d="M 1153.5,1152.5 C 1190.81,1151.49 1211.15,1169.49 1214.5,1206.5C 1212.62,1240.88 1194.45,1259.21 1160,1261.5C 1131.28,1260.16 1113.94,1245.49 1108,1217.5C 1104.05,1181.99 1119.21,1160.32 1153.5,1152.5 Z M 1155.5,1170.5 C 1174.98,1169.83 1187.15,1178.83 1192,1197.5C 1195.3,1213.17 1191.13,1226.33 1179.5,1237C 1159.93,1247.89 1144.1,1244.06 1132,1225.5C 1124.65,1206.56 1128.15,1190.06 1142.5,1176C 1146.74,1173.65 1151.07,1171.82 1155.5,1170.5 Z"/></g>
<g><path style="opacity:0.948" fill="#1053a1" d="M 1397.5,1152.5 C 1422.68,1150.17 1440.84,1160.17 1452,1182.5C 1455.09,1192.93 1456.26,1203.6 1455.5,1214.5C 1428.16,1214.17 1400.83,1214.5 1373.5,1215.5C 1378.57,1238.21 1392.57,1247.05 1415.5,1242C 1421.58,1239.42 1426.25,1235.25 1429.5,1229.5C 1437.17,1228.17 1444.83,1228.17 1452.5,1229.5C 1443.75,1250.47 1427.91,1261.14 1405,1261.5C 1376.5,1260.59 1359.16,1246.26 1353,1218.5C 1349.89,1200.01 1353.89,1183.34 1365,1168.5C 1374.12,1159.52 1384.95,1154.19 1397.5,1152.5 Z M 1396.5,1170.5 C 1406.76,1168.96 1416.09,1171.13 1424.5,1177C 1430.64,1182.44 1433.64,1189.28 1433.5,1197.5C 1413.83,1197.5 1394.17,1197.5 1374.5,1197.5C 1376,1183.68 1383.33,1174.68 1396.5,1170.5 Z"/></g>
<g><path style="opacity:0.949" fill="#1053a1" d="M 1503.5,1152.5 C 1521.64,1150.17 1536.14,1156.17 1547,1170.5C 1549.27,1175.25 1550.44,1180.25 1550.5,1185.5C 1543.5,1185.5 1536.5,1185.5 1529.5,1185.5C 1527.23,1174.59 1520.4,1169.59 1509,1170.5C 1497.01,1169.49 1491.35,1174.83 1492,1186.5C 1493.91,1190.04 1496.74,1192.54 1500.5,1194C 1513.39,1197.74 1526.06,1202.07 1538.5,1207C 1552.71,1217.07 1555.88,1229.9 1548,1245.5C 1542.02,1253.24 1534.19,1258.08 1524.5,1260C 1506.83,1263.83 1491.17,1260 1477.5,1248.5C 1471.8,1243.07 1468.8,1236.4 1468.5,1228.5C 1475.83,1228.5 1483.17,1228.5 1490.5,1228.5C 1492.35,1236.52 1497.35,1241.35 1505.5,1243C 1512.87,1244.31 1519.87,1243.31 1526.5,1240C 1532.26,1234.9 1532.93,1229.23 1528.5,1223C 1525.83,1221.67 1523.17,1220.33 1520.5,1219C 1509.06,1215.64 1497.73,1211.97 1486.5,1208C 1472.93,1201.35 1467.77,1190.52 1471,1175.5C 1473.68,1166.82 1479.18,1160.65 1487.5,1157C 1492.87,1155.16 1498.21,1153.66 1503.5,1152.5 Z"/></g>
<g><path style="opacity:0.863" fill="#21aee4" d="M 814.5,1282.5 C 822.874,1281.07 829.874,1283.4 835.5,1289.5C 834.167,1291.5 832.5,1293.17 830.5,1294.5C 825.041,1289.46 819.041,1288.63 812.5,1292C 806.108,1297.18 804.942,1303.35 809,1310.5C 813.536,1315.15 819.036,1316.65 825.5,1315C 827.399,1310.82 828.065,1306.32 827.5,1301.5C 830.167,1301.5 832.833,1301.5 835.5,1301.5C 835.808,1307.43 835.475,1313.26 834.5,1319C 822.748,1325.84 811.915,1324.68 802,1315.5C 794.698,1299.88 798.865,1288.88 814.5,1282.5 Z"/></g>
<g><path style="opacity:0.881" fill="#21aee4" d="M 969.5,1282.5 C 985.044,1280.89 994.044,1287.72 996.5,1303C 993.359,1319.91 983.359,1326.25 966.5,1322C 955.104,1316.17 951.27,1307.01 955,1294.5C 958.031,1288.25 962.865,1284.25 969.5,1282.5 Z M 973.5,1289.5 C 986.529,1291.89 990.363,1299.22 985,1311.5C 979.209,1316.18 973.042,1316.68 966.5,1313C 959.574,1305.69 959.908,1298.69 967.5,1292C 969.611,1291.16 971.611,1290.32 973.5,1289.5 Z"/></g>
<g><path style="opacity:0.877" fill="#21aee4" d="M 1193.5,1282.5 C 1213.82,1281.98 1221.98,1291.64 1218,1311.5C 1210.56,1322.91 1200.4,1326.07 1187.5,1321C 1176.63,1313.34 1174.13,1303.51 1180,1291.5C 1183.53,1286.83 1188.03,1283.83 1193.5,1282.5 Z M 1196.5,1289.5 C 1209.43,1291.36 1213.59,1298.36 1209,1310.5C 1203.15,1316.08 1196.65,1316.91 1189.5,1313C 1182.41,1302.14 1184.74,1294.3 1196.5,1289.5 Z"/></g>
<g><path style="opacity:0.895" fill="#21aee4" d="M 516.5,1283.5 C 527.833,1283.5 539.167,1283.5 550.5,1283.5C 550.5,1285.83 550.5,1288.17 550.5,1290.5C 546.167,1290.5 541.833,1290.5 537.5,1290.5C 537.5,1301.17 537.5,1311.83 537.5,1322.5C 534.833,1322.5 532.167,1322.5 529.5,1322.5C 529.5,1311.83 529.5,1301.17 529.5,1290.5C 525.167,1290.5 520.833,1290.5 516.5,1290.5C 516.5,1288.17 516.5,1285.83 516.5,1283.5 Z"/></g>
<g><path style="opacity:0.901" fill="#21aee4" d="M 585.5,1283.5 C 588.572,1283.18 591.572,1283.52 594.5,1284.5C 600.038,1297.07 605.705,1309.57 611.5,1322C 603.829,1324.25 599.829,1321.42 599.5,1313.5C 593.132,1313.17 586.798,1313.5 580.5,1314.5C 578.924,1316.98 577.924,1319.65 577.5,1322.5C 574.428,1322.82 571.428,1322.48 568.5,1321.5C 574.181,1308.81 579.848,1296.14 585.5,1283.5 Z M 589.5,1292.5 C 591.912,1297.2 594.246,1302.04 596.5,1307C 592.129,1307.83 587.795,1307.66 583.5,1306.5C 585.701,1301.89 587.701,1297.22 589.5,1292.5 Z"/></g>
<g><path style="opacity:0.89" fill="#21aee4" d="M 636.5,1283.5 C 639.167,1283.5 641.833,1283.5 644.5,1283.5C 644.334,1289.51 644.501,1295.51 645,1301.5C 650.134,1295.36 655.634,1289.53 661.5,1284C 664.833,1283.33 668.167,1283.33 671.5,1284C 665.801,1289.36 660.467,1295.03 655.5,1301C 661.167,1308 666.833,1315 672.5,1322C 669.167,1322.67 665.833,1322.67 662.5,1322C 658.323,1316.99 653.99,1312.16 649.5,1307.5C 647.851,1308.65 646.351,1309.98 645,1311.5C 644.501,1315.15 644.335,1318.82 644.5,1322.5C 641.833,1322.5 639.167,1322.5 636.5,1322.5C 636.5,1309.5 636.5,1296.5 636.5,1283.5 Z"/></g>
<g><path style="opacity:0.932" fill="#21aee4" d="M 697.5,1283.5 C 700.167,1283.5 702.833,1283.5 705.5,1283.5C 705.5,1296.5 705.5,1309.5 705.5,1322.5C 702.833,1322.5 700.167,1322.5 697.5,1322.5C 697.5,1309.5 697.5,1296.5 697.5,1283.5 Z"/></g>
<g><path style="opacity:0.905" fill="#21aee4" d="M 735.5,1283.5 C 738.187,1283.34 740.854,1283.5 743.5,1284C 749.546,1291.92 755.713,1299.76 762,1307.5C 762.5,1299.51 762.666,1291.51 762.5,1283.5C 765.167,1283.5 767.833,1283.5 770.5,1283.5C 770.5,1296.5 770.5,1309.5 770.5,1322.5C 768.143,1322.66 765.81,1322.5 763.5,1322C 757,1314.17 750.5,1306.33 744,1298.5C 743.5,1306.49 743.334,1314.49 743.5,1322.5C 740.833,1322.5 738.167,1322.5 735.5,1322.5C 735.5,1309.5 735.5,1296.5 735.5,1283.5 Z"/></g>
<g><path style="opacity:0.884" fill="#21aee4" d="M 895.5,1283.5 C 898.572,1283.18 901.572,1283.52 904.5,1284.5C 907.438,1290.1 910.771,1295.43 914.5,1300.5C 917.833,1295.17 921.167,1289.83 924.5,1284.5C 927.446,1283.35 930.446,1283.18 933.5,1284C 928.792,1291.92 923.959,1299.75 919,1307.5C 918.501,1312.49 918.334,1317.49 918.5,1322.5C 915.833,1322.5 913.167,1322.5 910.5,1322.5C 910.666,1317.82 910.499,1313.15 910,1308.5C 904.638,1300.44 899.805,1292.11 895.5,1283.5 Z"/></g>
<g><path style="opacity:0.872" fill="#21aee4" d="M 1023.5,1283.5 C 1026.17,1283.5 1028.83,1283.5 1031.5,1283.5C 1031.33,1292.17 1031.5,1300.84 1032,1309.5C 1033.3,1313.99 1036.3,1315.99 1041,1315.5C 1044.93,1315.9 1047.6,1314.24 1049,1310.5C 1049.5,1301.51 1049.67,1292.51 1049.5,1283.5C 1052.5,1283.5 1055.5,1283.5 1058.5,1283.5C 1058.83,1293.55 1058.33,1303.55 1057,1313.5C 1053.68,1320.25 1048.18,1323.58 1040.5,1323.5C 1033.43,1323.72 1028.26,1320.72 1025,1314.5C 1023.57,1304.25 1023.07,1293.91 1023.5,1283.5 Z"/></g>
<g><path style="opacity:0.916" fill="#21aee4" d="M 1124.5,1283.5 C 1134.17,1283.5 1143.83,1283.5 1153.5,1283.5C 1153.5,1285.83 1153.5,1288.17 1153.5,1290.5C 1146.5,1290.5 1139.5,1290.5 1132.5,1290.5C 1132.5,1293.83 1132.5,1297.17 1132.5,1300.5C 1138.5,1300.5 1144.5,1300.5 1150.5,1300.5C 1150.5,1302.83 1150.5,1305.17 1150.5,1307.5C 1144.5,1307.5 1138.5,1307.5 1132.5,1307.5C 1132.5,1312.5 1132.5,1317.5 1132.5,1322.5C 1129.83,1322.5 1127.17,1322.5 1124.5,1322.5C 1124.5,1309.5 1124.5,1296.5 1124.5,1283.5 Z"/></g>
<g><path style="opacity:0.867" fill="#21aee4" d="M 1246.5,1283.5 C 1254.51,1283.33 1262.51,1283.5 1270.5,1284C 1280.09,1288.49 1282.59,1295.66 1278,1305.5C 1276.46,1307.38 1274.62,1308.88 1272.5,1310C 1275.29,1313.75 1277.96,1317.58 1280.5,1321.5C 1277.5,1322.83 1274.5,1322.83 1271.5,1321.5C 1269.29,1318.24 1266.96,1315.08 1264.5,1312C 1261.52,1311.5 1258.52,1311.34 1255.5,1311.5C 1255.5,1315.17 1255.5,1318.83 1255.5,1322.5C 1252.5,1322.5 1249.5,1322.5 1246.5,1322.5C 1246.5,1309.5 1246.5,1296.5 1246.5,1283.5 Z M 1255.5,1290.5 C 1259.51,1290.33 1263.51,1290.5 1267.5,1291C 1271.56,1293.47 1272.56,1296.97 1270.5,1301.5C 1269.33,1302.58 1268,1303.42 1266.5,1304C 1262.85,1304.5 1259.18,1304.67 1255.5,1304.5C 1255.5,1299.83 1255.5,1295.17 1255.5,1290.5 Z"/></g>
<g><path style="opacity:0.891" fill="#21aee4" d="M 1304.5,1283.5 C 1307.5,1283.5 1310.5,1283.5 1313.5,1283.5C 1316.03,1292.58 1318.86,1301.58 1322,1310.5C 1325.2,1301.91 1328.2,1293.24 1331,1284.5C 1333.72,1283.56 1336.55,1283.22 1339.5,1283.5C 1342.02,1292.57 1344.86,1301.57 1348,1310.5C 1351.2,1301.91 1354.2,1293.24 1357,1284.5C 1359.79,1283.22 1362.63,1283.22 1365.5,1284.5C 1361.23,1296.8 1357.07,1309.13 1353,1321.5C 1349.94,1322.45 1346.78,1322.78 1343.5,1322.5C 1340.98,1313.43 1338.14,1304.43 1335,1295.5C 1331.86,1304.43 1329.02,1313.43 1326.5,1322.5C 1323.17,1322.5 1319.83,1322.5 1316.5,1322.5C 1312.9,1309.38 1308.9,1296.38 1304.5,1283.5 Z"/></g>
<g><path style="opacity:0.898" fill="#21aee4" d="M 1401.5,1283.5 C 1407.25,1282.26 1411.08,1284.26 1413,1289.5C 1417.56,1300.29 1422.39,1310.95 1427.5,1321.5C 1419.87,1324.25 1415.87,1321.58 1415.5,1313.5C 1409.13,1313.17 1402.8,1313.5 1396.5,1314.5C 1395.31,1316.75 1394.31,1319.08 1393.5,1321.5C 1390.5,1322.83 1387.5,1322.83 1384.5,1321.5C 1390.18,1308.81 1395.85,1296.15 1401.5,1283.5 Z M 1405.5,1292.5 C 1407.91,1297.2 1410.25,1302.04 1412.5,1307C 1408.17,1307.67 1403.83,1307.67 1399.5,1307C 1401.92,1302.33 1403.92,1297.5 1405.5,1292.5 Z"/></g>
<g><path style="opacity:0.907" fill="#21aee4" d="M 1452.5,1283.5 C 1460.17,1283.33 1467.84,1283.5 1475.5,1284C 1484.73,1287.98 1487.56,1294.82 1484,1304.5C 1482.13,1306.71 1479.96,1308.54 1477.5,1310C 1480.74,1313.82 1483.74,1317.82 1486.5,1322C 1483.12,1322.82 1479.78,1322.66 1476.5,1321.5C 1474.36,1318.19 1472.03,1315.03 1469.5,1312C 1466.52,1311.5 1463.52,1311.34 1460.5,1311.5C 1460.5,1315.17 1460.5,1318.83 1460.5,1322.5C 1457.83,1322.5 1455.17,1322.5 1452.5,1322.5C 1452.5,1309.5 1452.5,1296.5 1452.5,1283.5 Z M 1460.5,1290.5 C 1464.51,1290.33 1468.51,1290.5 1472.5,1291C 1478.22,1294.17 1478.89,1298.17 1474.5,1303C 1469.93,1304.31 1465.27,1304.81 1460.5,1304.5C 1460.5,1299.83 1460.5,1295.17 1460.5,1290.5 Z"/></g>
<g><path style="opacity:0.897" fill="#21aee4" d="M 1513.5,1283.5 C 1522.91,1283.08 1532.25,1283.58 1541.5,1285C 1552.53,1292.62 1555.03,1302.46 1549,1314.5C 1546.07,1318.38 1542.24,1320.88 1537.5,1322C 1529.51,1322.5 1521.51,1322.67 1513.5,1322.5C 1513.5,1309.5 1513.5,1296.5 1513.5,1283.5 Z M 1521.5,1290.5 C 1527.76,1289.87 1533.76,1290.71 1539.5,1293C 1544.25,1298.72 1544.75,1304.89 1541,1311.5C 1539.75,1312.21 1538.58,1313.04 1537.5,1314C 1532.26,1315.34 1526.93,1315.84 1521.5,1315.5C 1521.5,1307.17 1521.5,1298.83 1521.5,1290.5 Z"/></g>
</svg>
