<svg width="10" height="10" viewBox="0 0 10 10" fill="none" xmlns="http://www.w3.org/2000/svg">
<path fill-rule="evenodd" clip-rule="evenodd" d="M9.11111 2.00022H0.888889V9.11133H9.11111V2.00022ZM0 1.11133V10.0002H10V1.11133H0Z" fill="#39414A"/>
<path fill-rule="evenodd" clip-rule="evenodd" d="M3.33328 3.33333V0L4.22217 0V3.33333H3.33328Z" fill="#39414A"/>
<path fill-rule="evenodd" clip-rule="evenodd" d="M5.55545 3.33333V0L6.44434 0V3.33333H5.55545Z" fill="#39414A"/>
<path fill-rule="evenodd" clip-rule="evenodd" d="M3.33328 5.55539H2.22217V4.6665H3.33328V5.55539Z" fill="#39414A"/>
<path fill-rule="evenodd" clip-rule="evenodd" d="M3.33328 7.77756H2.22217V6.88867H3.33328V7.77756Z" fill="#39414A"/>
<path fill-rule="evenodd" clip-rule="evenodd" d="M5.55545 5.55539H4.44434V4.6665H5.55545V5.55539Z" fill="#39414A"/>
<path fill-rule="evenodd" clip-rule="evenodd" d="M5.55545 7.77756H4.44434V6.88867H5.55545V7.77756Z" fill="#39414A"/>
<path fill-rule="evenodd" clip-rule="evenodd" d="M7.77762 5.55539H6.6665V4.6665H7.77762V5.55539Z" fill="#39414A"/>
<path fill-rule="evenodd" clip-rule="evenodd" d="M7.77762 7.77756H6.6665V6.88867H7.77762V7.77756Z" fill="#39414A"/>
</svg>
