<svg width="32" height="29" viewBox="0 0 32 29" fill="none" xmlns="http://www.w3.org/2000/svg">
<path d="M19.9348 0C20.97 0 21.9321 0.515999 22.48 1.36513L24.5081 4.50779H27.6667C30.0599 4.50779 32 6.38348 32 8.69725V24.8105C32 27.1243 30.0599 29 27.6667 29H4.33333C1.9401 29 0 27.1243 0 24.8105V8.69725C0 6.38348 1.9401 4.50779 4.33333 4.50779H7.75802L9.60145 1.44254C10.1385 0.54947 11.1264 0 12.1949 0H19.9348ZM19.9348 1.9336H12.1949C11.8896 1.9336 11.6041 2.06816 11.416 2.29407L11.3304 2.41444L9.19783 5.96054C9.0188 6.25823 8.68951 6.44139 8.33333 6.44139H4.33333C3.04467 6.44139 2 7.45137 2 8.69725V24.8105C2 26.0564 3.04467 27.0664 4.33333 27.0664H27.6667C28.9553 27.0664 30 26.0564 30 24.8105V8.69725C30 7.45137 28.9553 6.44139 27.6667 6.44139H23.9533C23.6082 6.44139 23.2876 6.26939 23.1049 5.98635L20.7832 2.38864C20.6005 2.1056 20.2798 1.9336 19.9348 1.9336ZM16 9.02079C20.0501 9.02079 23.3333 12.195 23.3333 16.1106C23.3333 20.0263 20.0501 23.2005 16 23.2005C11.9499 23.2005 8.66667 20.0263 8.66667 16.1106C8.66667 12.195 11.9499 9.02079 16 9.02079ZM16 10.9544C13.0545 10.9544 10.6667 13.2629 10.6667 16.1106C10.6667 18.9584 13.0545 21.2669 16 21.2669C18.9455 21.2669 21.3333 18.9584 21.3333 16.1106C21.3333 13.2629 18.9455 10.9544 16 10.9544Z" fill="#212121"/>
</svg>
