<svg width="10" height="13" viewBox="0 0 10 13" fill="none" xmlns="http://www.w3.org/2000/svg">
<path fill-rule="evenodd" clip-rule="evenodd" d="M5 0.787443C2.66274 0.787443 0.769231 2.71457 0.769231 5.11838C0.769231 5.57191 0.942848 6.11957 1.25587 6.72741C1.56579 7.32923 1.99477 7.95664 2.46481 8.56102C3.31954 9.66005 4.28381 10.6503 4.85649 11.2384C4.90756 11.2909 4.95551 11.3401 5 11.386C5.04449 11.3401 5.09244 11.2909 5.14351 11.2384C5.7162 10.6503 6.68046 9.66005 7.53519 8.56102C8.00523 7.95664 8.43421 7.32923 8.74413 6.72741C9.05715 6.11957 9.23077 5.57191 9.23077 5.11838C9.23077 2.71457 7.33726 0.787443 5 0.787443ZM0 5.11838C0 2.27831 2.23924 0 5 0C7.76076 0 10 2.27831 10 5.11838C10 5.75773 9.76214 6.43916 9.4246 7.09462C9.08396 7.75609 8.6233 8.42617 8.13699 9.05148C7.25377 10.1871 6.2598 11.2076 5.68858 11.7941C5.63106 11.8532 5.57782 11.9078 5.52941 11.9577C5.41789 12.0728 5.24193 12.2222 5 12.2222C4.75807 12.2222 4.58211 12.0728 4.47059 11.9577C4.42218 11.9078 4.36894 11.8531 4.31141 11.7941C3.74019 11.2076 2.74623 10.1871 1.86301 9.05148C1.3767 8.42618 0.91604 7.75609 0.575399 7.09462C0.237857 6.43916 0 5.75773 0 5.11838Z" fill="#39414A"/>
<path fill-rule="evenodd" clip-rule="evenodd" d="M3.61155 4.99957C3.61155 5.76663 4.23337 6.38845 5.00043 6.38845C5.7675 6.38845 6.38932 5.76663 6.38932 4.99957C6.38932 4.2325 5.7675 3.61068 5.00043 3.61068C4.23337 3.61068 3.61155 4.2325 3.61155 4.99957ZM2.77821 4.99957C2.77821 6.22687 3.77313 7.22179 5.00043 7.22179C6.22773 7.22179 7.22266 6.22687 7.22266 4.99957C7.22266 3.77227 6.22773 2.77734 5.00043 2.77734C3.77313 2.77734 2.77821 3.77227 2.77821 4.99957Z" fill="#39414A"/>
</svg>
