<svg width="16" height="20" viewBox="0 0 16 20" fill="none" xmlns="http://www.w3.org/2000/svg">
<path fill-rule="evenodd" clip-rule="evenodd" d="M7.775 1.22447C4.14056 1.22447 1.19615 4.22115 1.19615 7.95908C1.19615 8.66432 1.46613 9.51593 1.95287 10.4611C2.4348 11.3969 3.10187 12.3726 3.83278 13.3124C5.16189 15.0214 6.66132 16.5612 7.55184 17.4758C7.63125 17.5573 7.70582 17.6339 7.775 17.7052C7.84418 17.6339 7.91875 17.5573 7.99816 17.4757C8.88869 16.5612 10.3881 15.0214 11.7172 13.3124C12.4481 12.3726 13.1152 11.3969 13.5971 10.4611C14.0839 9.51593 14.3538 8.66432 14.3538 7.95908C14.3538 4.22115 11.4094 1.22447 7.775 1.22447ZM0 7.95908C0 3.54277 3.48202 0 7.775 0C12.068 0 15.55 3.54277 15.55 7.95908C15.55 8.95327 15.1801 10.0129 14.6553 11.0321C14.1256 12.0607 13.4092 13.1027 12.653 14.075C11.2796 15.841 9.73399 17.4279 8.84574 18.3398C8.75629 18.4317 8.6735 18.5166 8.59823 18.5943C8.42482 18.7732 8.15121 19.0056 7.775 19.0056C7.39879 19.0056 7.12518 18.7732 6.95177 18.5943C6.87649 18.5166 6.7937 18.4316 6.70424 18.3398C5.81599 17.4278 4.27038 15.841 2.89698 14.075C2.14077 13.1027 1.42444 12.0607 0.894745 11.0321C0.369868 10.0129 0 8.95327 0 7.95908Z" fill="#39414A"/>
<path fill-rule="evenodd" clip-rule="evenodd" d="M5.61519 7.77489C5.61519 8.96767 6.58213 9.93461 7.77491 9.93461C8.96769 9.93461 9.93464 8.96767 9.93464 7.77489C9.93464 6.58211 8.96769 5.61517 7.77491 5.61517C6.58213 5.61517 5.61519 6.58211 5.61519 7.77489ZM4.31936 7.77489C4.31936 9.68334 5.86646 11.2304 7.77491 11.2304C9.68336 11.2304 11.2305 9.68334 11.2305 7.77489C11.2305 5.86644 9.68336 4.31934 7.77491 4.31934C5.86646 4.31934 4.31936 5.86644 4.31936 7.77489Z" fill="#39414A"/>
</svg>
