<svg width="11" height="13" viewBox="0 0 11 13" fill="none" xmlns="http://www.w3.org/2000/svg">
<path fill-rule="evenodd" clip-rule="evenodd" d="M5.63635 0.787443C3.2991 0.787443 1.40558 2.71457 1.40558 5.11838C1.40558 5.57191 1.5792 6.11957 1.89222 6.72741C2.20214 7.32923 2.63113 7.95664 3.10116 8.56102C3.9559 9.66005 4.92016 10.6503 5.49284 11.2384C5.54391 11.2909 5.59187 11.3401 5.63635 11.386C5.68084 11.3401 5.7288 11.2909 5.77987 11.2384C6.35255 10.6503 7.31681 9.66005 8.17154 8.56102C8.64158 7.95664 9.07057 7.32923 9.38049 6.72741C9.6935 6.11957 9.86712 5.57191 9.86712 5.11838C9.86712 2.71457 7.97361 0.787443 5.63635 0.787443ZM0.636353 5.11838C0.636353 2.27831 2.8756 0 5.63635 0C8.39711 0 10.6364 2.27831 10.6364 5.11838C10.6364 5.75773 10.3985 6.43916 10.061 7.09462C9.72031 7.75609 9.25965 8.42617 8.77334 9.05148C7.89012 10.1871 6.89616 11.2076 6.32493 11.7941C6.26741 11.8532 6.21417 11.9078 6.16576 11.9577C6.05424 12.0728 5.87829 12.2222 5.63635 12.2222C5.39442 12.2222 5.21846 12.0728 5.10694 11.9577C5.05853 11.9078 5.00529 11.8531 4.94776 11.7941C4.37654 11.2076 3.38258 10.1871 2.49936 9.05148C2.01305 8.42618 1.55239 7.75609 1.21175 7.09462C0.87421 6.43916 0.636353 5.75773 0.636353 5.11838Z" fill="#39414A"/>
<path fill-rule="evenodd" clip-rule="evenodd" d="M4.24747 5.00005C4.24747 5.76712 4.8693 6.38894 5.63636 6.38894C6.40342 6.38894 7.02525 5.76712 7.02525 5.00005C7.02525 4.23299 6.40342 3.61117 5.63636 3.61117C4.8693 3.61117 4.24747 4.23299 4.24747 5.00005ZM3.41414 5.00005C3.41414 6.22735 4.40906 7.22228 5.63636 7.22228C6.86366 7.22228 7.85858 6.22735 7.85858 5.00005C7.85858 3.77275 6.86366 2.77783 5.63636 2.77783C4.40906 2.77783 3.41414 3.77275 3.41414 5.00005Z" fill="#39414A"/>
</svg>
