<svg width="20" height="20" viewBox="0 0 20 20" fill="none" xmlns="http://www.w3.org/2000/svg">
<g clip-path="url(#clip0_7655_4924)">
<path d="M11.2373 8.27527C11.2373 10.9043 9.06582 13.0505 6.36864 13.0505C3.67146 13.0505 1.5 10.9043 1.5 8.27527C1.5 5.6462 3.67146 3.5 6.36864 3.5C9.06582 3.5 11.2373 5.6462 11.2373 8.27527Z" stroke="#4D4D4D"/>
<path d="M8.90288 8.27604C8.90288 9.6096 7.78301 10.7171 6.36843 10.7171C4.95385 10.7171 3.83398 9.6096 3.83398 8.27604C3.83398 6.94248 4.95385 5.83496 6.36843 5.83496C7.78301 5.83496 8.90288 6.94248 8.90288 8.27604Z" stroke="#4D4D4D"/>
<path d="M6.0219 16.2102C6.0219 16.3759 6.15621 16.5102 6.3219 16.5102C6.48758 16.5102 6.6219 16.3759 6.6219 16.2102H6.0219ZM6.0219 13.1758V16.2102H6.6219V13.1758H6.0219Z" fill="#4D4D4D"/>
<mask id="path-4-inside-1_7655_4924" fill="white">
<rect x="19.9999" y="5.61621" width="11.7327" height="8.70664" rx="0.607992" transform="rotate(90 19.9999 5.61621)"/>
</mask>
<rect x="19.9999" y="5.61621" width="11.7327" height="8.70664" rx="0.607992" transform="rotate(90 19.9999 5.61621)" stroke="#4D4D4D" stroke-width="2" mask="url(#path-4-inside-1_7655_4924)"/>
<path d="M15.9233 2.00008C15.9233 1.8344 15.789 1.70008 15.6233 1.70008C15.4576 1.70008 15.3233 1.8344 15.3233 2.00008L15.9233 2.00008ZM15.9233 5.84277L15.9233 2.00008L15.3233 2.00008L15.3233 5.84277L15.9233 5.84277Z" fill="#4D4D4D"/>
<rect x="17.0112" y="6.05566" width="2.77528" height="1.60112" transform="rotate(-180 17.0112 6.05566)" fill="#4D4D4D"/>
<path d="M14.4021 12.0249L16.5844 8.61816L15.8491 11.2517L16.7979 12.0249L14.2361 15.7698L15.3509 12.6531L14.4021 12.0249Z" fill="#4D4D4D"/>
<circle cx="14.025" cy="8.08186" r="0.376779" fill="#4D4D4D"/>
<circle cx="15.6265" cy="8.08186" r="0.376779" fill="#4D4D4D"/>
<circle cx="17.2275" cy="8.08186" r="0.376779" fill="#4D4D4D"/>
</g>
<defs>
<clipPath id="clip0_7655_4924">
<rect width="20" height="20" fill="white"/>
</clipPath>
</defs>
</svg>
