<svg width="30" height="27" viewBox="0 0 30 27" fill="none" xmlns="http://www.w3.org/2000/svg">
<path fill-rule="evenodd" clip-rule="evenodd" d="M27.7587 18.8434C27.0558 18.4984 23.631 16.8243 22.9921 16.5943C22.3532 16.3515 21.8803 16.2493 21.4203 16.9393C20.9602 17.6294 19.6057 19.1884 19.2095 19.6357C18.8006 20.0957 18.3917 20.1596 17.6888 19.8146C16.9988 19.4696 14.7497 18.7539 12.0789 16.3771C10.0214 14.5497 8.60299 12.2878 8.20684 11.5977C7.81069 10.9077 8.1685 10.5371 8.51353 10.192C8.83301 9.87256 9.2036 9.37418 9.56141 8.97803C9.65086 8.86302 9.74031 8.74801 9.81699 8.64578C9.98311 8.3902 10.0981 8.1474 10.2515 7.81515C10.4943 7.35511 10.3665 6.94618 10.2004 6.60115C10.0215 6.25611 8.62854 2.84413 8.04071 1.464C7.46566 0.0838744 6.87782 0.313895 6.4689 0.313895C6.07275 0.313895 5.59993 0.25 5.13988 0.25C4.67984 0.25 3.9131 0.428906 3.27416 1.11897C2.63521 1.80903 0.833374 3.48308 0.833374 6.89506C0.833374 7.70014 0.973942 8.49243 1.19118 9.24639C1.89403 11.6872 3.41472 13.6935 3.68308 14.0385C4.02811 14.4858 8.50075 21.7059 15.5803 24.4917C22.6726 27.252 22.6726 26.3319 23.9505 26.2041C25.2284 26.1018 28.0781 24.5428 28.6532 22.9199C29.241 21.3097 29.241 19.9296 29.0621 19.6357C28.9088 19.3673 28.4487 19.1884 27.7587 18.8434Z" fill="#100146"/>
</svg>
