<svg width="36" height="36" viewBox="0 0 36 36" fill="none" xmlns="http://www.w3.org/2000/svg">
<path d="M14.8887 21.0625C15.1348 20.8281 15.3457 20.5645 15.5215 20.2715C15.6973 19.9785 15.8262 19.668 15.9082 19.3398L20.5312 21.6426C20.3672 21.9121 20.2383 22.2051 20.1445 22.5215C20.0508 22.8379 20.0039 23.166 20.0039 23.5059C20.0039 23.5176 20.0039 23.5352 20.0039 23.5586C20.0039 23.582 20.0039 23.5996 20.0039 23.6113L14.8887 21.0625ZM21.1113 15.0684C20.8652 14.834 20.6543 14.5703 20.4785 14.2773C20.3027 13.9844 20.1738 13.668 20.0918 13.3281L14.8887 15.9473C15.1348 16.1699 15.3457 16.4277 15.5215 16.7207C15.6973 17.0137 15.8262 17.3301 15.9082 17.6699L21.1113 15.0684ZM23.502 13.9961C23.0918 13.9961 22.7402 13.8496 22.4473 13.5566C22.1543 13.2637 22.0078 12.9121 22.0078 12.502C22.0078 12.0918 22.1543 11.7402 22.4473 11.4473C22.7402 11.1543 23.0918 11.0078 23.502 11.0078C23.9121 11.0078 24.2637 11.1543 24.5566 11.4473C24.8496 11.7402 24.9961 12.0918 24.9961 12.502C24.9961 12.9121 24.8496 13.2637 24.5566 13.5566C24.2637 13.8496 23.9121 13.9961 23.502 13.9961ZM23.502 16C23.9824 16 24.4336 15.9062 24.8555 15.7188C25.2891 15.543 25.6641 15.2969 25.9805 14.9805C26.2969 14.6641 26.543 14.2891 26.7188 13.8555C26.9062 13.4336 27 12.9824 27 12.502C27 12.0215 26.9062 11.5645 26.7188 11.1309C26.543 10.709 26.2969 10.3398 25.9805 10.0234C25.6641 9.70703 25.2891 9.45508 24.8555 9.26758C24.4336 9.0918 23.9824 9.00391 23.502 9.00391C23.0215 9.00391 22.5645 9.0918 22.1309 9.26758C21.709 9.45508 21.3398 9.70703 21.0234 10.0234C20.707 10.3398 20.4551 10.709 20.2676 11.1309C20.0918 11.5645 20.0039 12.0215 20.0039 12.502C20.0039 12.9824 20.0918 13.4336 20.2676 13.8555C20.4551 14.2891 20.707 14.6641 21.0234 14.9805C21.3398 15.2969 21.709 15.543 22.1309 15.7188C22.5645 15.9062 23.0215 16 23.502 16ZM23.502 25C23.0918 25 22.7402 24.8535 22.4473 24.5605C22.1543 24.2676 22.0078 23.916 22.0078 23.5059C22.0078 23.084 22.1543 22.7266 22.4473 22.4336C22.7402 22.1406 23.0918 21.9941 23.502 21.9941C23.9121 21.9941 24.2637 22.1406 24.5566 22.4336C24.8496 22.7266 24.9961 23.084 24.9961 23.5059C24.9961 23.916 24.8496 24.2676 24.5566 24.5605C24.2637 24.8535 23.9121 25 23.502 25ZM23.502 27.0039C23.9824 27.0039 24.4336 26.9102 24.8555 26.7227C25.2891 26.5352 25.6641 26.2832 25.9805 25.9668C26.2969 25.6504 26.543 25.2812 26.7188 24.8594C26.9062 24.4375 27 23.9863 27 23.5059C27 23.0137 26.9062 22.5566 26.7188 22.1348C26.543 21.7129 26.2969 21.3438 25.9805 21.0273C25.6641 20.7109 25.2891 20.459 24.8555 20.2715C24.4336 20.0957 23.9824 20.0078 23.502 20.0078C23.0215 20.0078 22.5645 20.0957 22.1309 20.2715C21.709 20.459 21.3398 20.7109 21.0234 21.0273C20.707 21.3438 20.4551 21.7129 20.2676 22.1348C20.0918 22.5566 20.0039 23.0137 20.0039 23.5059C20.0039 23.9863 20.0918 24.4375 20.2676 24.8594C20.4551 25.2812 20.707 25.6504 21.0234 25.9668C21.3398 26.2832 21.709 26.5352 22.1309 26.7227C22.5645 26.9102 23.0215 27.0039 23.502 27.0039ZM12.498 20.0078C12.0879 20.0078 11.7363 19.8613 11.4434 19.5684C11.1504 19.2754 11.0039 18.918 11.0039 18.4961C11.0039 18.0859 11.1504 17.7344 11.4434 17.4414C11.7363 17.1484 12.0879 17.002 12.498 17.002C12.9082 17.002 13.2598 17.1484 13.5527 17.4414C13.8457 17.7344 13.9922 18.0859 13.9922 18.4961C13.9922 18.918 13.8457 19.2754 13.5527 19.5684C13.2598 19.8613 12.9082 20.0078 12.498 20.0078ZM12.498 21.9941C12.9785 21.9941 13.4355 21.9062 13.8691 21.7305C14.291 21.543 14.6602 21.291 14.9766 20.9746C15.293 20.6582 15.5449 20.2891 15.7324 19.8672C15.9082 19.4336 15.9961 18.9766 15.9961 18.4961C15.9961 18.0156 15.9082 17.5645 15.7324 17.1426C15.5449 16.709 15.293 16.334 14.9766 16.0176C14.6602 15.7012 14.291 15.4551 13.8691 15.2793C13.4355 15.0918 12.9785 14.998 12.498 14.998C12.0176 14.998 11.5664 15.0918 11.1445 15.2793C10.7109 15.4551 10.3359 15.7012 10.0195 16.0176C9.70312 16.334 9.45703 16.709 9.28125 17.1426C9.09375 17.5645 9 18.0156 9 18.4961C9 18.9766 9.09375 19.4336 9.28125 19.8672C9.45703 20.2891 9.70312 20.6582 10.0195 20.9746C10.3359 21.291 10.7109 21.543 11.1445 21.7305C11.5664 21.9062 12.0176 21.9941 12.498 21.9941Z" fill="#100146"/>
</svg>
