<svg width="40" height="22" viewBox="0 0 40 22" fill="none" xmlns="http://www.w3.org/2000/svg">
<path d="M34.0833 5.35911V0.382812H0.5V21.1172H34.0833V16.141H39.5V5.35911H34.0833ZM30.8333 18.6291H3.75003V2.87096H30.8334V18.6291H30.8333ZM36.25 13.6529H34.0833V7.84719H36.25V13.6529Z" fill="black"/>
<path fill-rule="evenodd" clip-rule="evenodd" d="M0 0H34.5833V4.97629H40V16.5238H34.5833V21.5H0V0ZM1 0.765578V20.7344H33.5833V15.7582H39V5.74187H33.5833V0.765578H1ZM3.25003 2.48815H31.3334V19.0118H3.25003V2.48815ZM4.25003 3.25372V18.2463H30.3334V3.25372H4.25003ZM33.5833 7.46438H36.75V14.0356H33.5833V7.46438ZM34.5833 8.22996V13.27H35.75V8.22996H34.5833Z" fill="white"/>
<path d="M11.8744 5.77344H7.54102V15.3113H11.8744V5.77344Z" fill="black"/>
<path fill-rule="evenodd" clip-rule="evenodd" d="M10.8744 6.53902H8.54102V14.5457H10.8744V6.53902ZM11.8744 5.77344V15.3113H7.54102V5.77344H11.8744Z" fill="white"/>
<path d="M19.4583 5.77344H15.125V15.3113H19.4583V5.77344Z" fill="black"/>
<path fill-rule="evenodd" clip-rule="evenodd" d="M18.4583 6.53902H16.125V14.5457H18.4583V6.53902ZM19.4583 5.77344V15.3113H15.125V5.77344H19.4583Z" fill="white"/>
</svg>
