<svg id="Layer_1" data-name="Layer 1" xmlns="http://www.w3.org/2000/svg" viewBox="0 0 512 512"><defs><style>.cls-1{fill:#141f38;}</style></defs><title>headphones-outline</title><path class="cls-1" d="M442.77,80.93l.27-.27-9.39-9a256,256,0,0,0-351.8-3.23h0l-.29.28-9.43,8.77.23.23A257,257,0,0,0,0,256V480a32,32,0,0,0,32,32H94.4a59.2,59.2,0,0,0,59.2-59.2v-112a59.2,59.2,0,0,0-59.2-59.2H25.6V256A231.25,231.25,0,0,1,90.48,95.78l6.95,6.95c15.42,15.41,39.38,17.79,56.95,5.66a179.16,179.16,0,0,1,206,2,44.07,44.07,0,0,0,25.82,8.34,45.65,45.65,0,0,0,32.29-13.53L424.66,99A228.56,228.56,0,0,1,486.4,256v25.6H417.6a59.2,59.2,0,0,0-59.2,59.2v112A59.2,59.2,0,0,0,417.6,512H480a32,32,0,0,0,32-32V256A254,254,0,0,0,442.77,80.93ZM76.8,307.2H94.4A33.64,33.64,0,0,1,128,340.8v112a33.64,33.64,0,0,1-33.6,33.6H76.8Zm-25.6,0V486.4H32a6.41,6.41,0,0,1-6.4-6.4V307.2ZM400.41,87.09c-6.81,6.82-17.59,7.91-25.06,2.51a204.77,204.77,0,0,0-235.51-2.3c-7.42,5.13-17.65,4-24.31-2.68l-6.26-6.26a230.51,230.51,0,0,1,297,2.89ZM435.2,486.4H417.6A33.64,33.64,0,0,1,384,452.8v-112a33.64,33.64,0,0,1,33.6-33.6h17.6Zm51.2-6.4a6.41,6.41,0,0,1-6.4,6.4H460.8V307.2h25.6V480Z"/></svg>