<svg width="19" height="18" viewBox="0 0 19 18" fill="none" xmlns="http://www.w3.org/2000/svg">
<path fill-rule="evenodd" clip-rule="evenodd" d="M11.182 3.61095C9.2294 1.65833 6.06357 1.65833 4.11095 3.61095C2.15833 5.56357 2.15833 8.7294 4.11095 10.682C6.06357 12.6346 9.2294 12.6346 11.182 10.682C13.1346 8.7294 13.1346 5.56357 11.182 3.61095ZM2.69674 2.19674C5.43041 -0.536933 9.86256 -0.536933 12.5962 2.19674C15.0898 4.69033 15.3088 8.59718 13.2532 11.339L18.3536 16.4394L16.9394 17.8536L11.839 12.7532C9.09718 14.8088 5.19033 14.5898 2.69674 12.0962C-0.0369332 9.36256 -0.0369332 4.93041 2.69674 2.19674Z" fill="white"/>
</svg>
