<svg width="16" height="12" viewBox="0 0 16 12" fill="none" xmlns="http://www.w3.org/2000/svg">
<mask id="path-1-inside-1_4006_858" fill="white">
<path d="M2 3H14V11.7C14 11.8657 13.8657 12 13.7 12H2.3C2.13431 12 2 11.8657 2 11.7V3Z"/>
</mask>
<path d="M2 3H14V11.7C14 11.8657 13.8657 12 13.7 12H2.3C2.13431 12 2 11.8657 2 11.7V3Z" stroke="#5932EA" stroke-width="1.6" mask="url(#path-1-inside-1_4006_858)"/>
<path d="M1 1.3C1 1.13431 1.13431 1 1.3 1H3.72727V3.27273C3.72727 4.02584 3.11675 4.63636 2.36364 4.63636C1.61052 4.63636 1 4.02584 1 3.27273V1.3Z" fill="white" stroke="#5932EA" stroke-width="0.8" stroke-linejoin="round"/>
<path d="M3.72729 1H6.45457V3.27273C6.45457 4.02584 5.84405 4.63636 5.09093 4.63636C4.33782 4.63636 3.72729 4.02584 3.72729 3.27273V1Z" fill="white" stroke="#5932EA" stroke-width="0.8" stroke-linejoin="round"/>
<path d="M6.45453 1H9.1818V3.27273C9.1818 4.02584 8.57128 4.63636 7.81817 4.63636C7.06505 4.63636 6.45453 4.02584 6.45453 3.27273V1Z" fill="white" stroke="#5932EA" stroke-width="0.8" stroke-linejoin="round"/>
<path d="M9.6 11.6L6.4 11.6L6.4 9C6.4 8.11634 7.11634 7.4 8 7.4C8.88366 7.4 9.6 8.11634 9.6 9L9.6 11.6Z" stroke="#5932EA" stroke-width="0.8" stroke-linejoin="round"/>
<path d="M9.18182 1H11.9091V3.27273C11.9091 4.02584 11.2986 4.63636 10.5455 4.63636C9.79234 4.63636 9.18182 4.02584 9.18182 3.27273V1Z" fill="white" stroke="#5932EA" stroke-width="0.8" stroke-linejoin="round"/>
<path d="M11.9091 1H14.3363C14.502 1 14.6363 1.13431 14.6363 1.3V3.27273C14.6363 4.02584 14.0258 4.63636 13.2727 4.63636C12.5196 4.63636 11.9091 4.02584 11.9091 3.27273V1Z" fill="white" stroke="#5932EA" stroke-width="0.8" stroke-linejoin="round"/>
</svg>
