<svg id="Layer_1" data-name="Layer 1" xmlns="http://www.w3.org/2000/svg" viewBox="0 0 512 512"><defs><style>.cls-1{fill:#141f38;}</style></defs><title>tablet-outline</title><path class="cls-1" d="M448,76.8H64a64,64,0,0,0-64,64V371.2a64,64,0,0,0,64,64H448a64,64,0,0,0,64-64V140.8A64,64,0,0,0,448,76.8ZM409.6,409.6H64a38.44,38.44,0,0,1-38.4-38.4V140.8A38.44,38.44,0,0,1,64,102.4H409.6Zm76.8-38.4A38.44,38.44,0,0,1,448,409.6H435.2V102.4H448a38.44,38.44,0,0,1,38.4,38.4Z"/><circle class="cls-1" cx="460.8" cy="256" r="12.8"/></svg>