<svg id="Layer_1" data-name="Layer 1" xmlns="http://www.w3.org/2000/svg" viewBox="0 0 512 512"><defs><style>.cls-1{fill:#141f38;}</style></defs><title>monitor-outline</title><path class="cls-1" d="M371.2,486.4a12.8,12.8,0,1,0,0-25.6H327.44c-15.53-10.26-26.73-39.05-31.73-64H448a64,64,0,0,0,64-64V89.6a64,64,0,0,0-64-64H64a64,64,0,0,0-64,64V332.8a64,64,0,0,0,64,64H213.08c-5,24.95-16.2,53.74-31.73,64H140.8a12.8,12.8,0,1,0,0,25.6Zm-78.11-25.6H215.71c12.24-18.75,19.77-43.41,23.36-64h30.65C273.32,417.39,280.85,442,293.09,460.8ZM64,371.2a38.44,38.44,0,0,1-38.4-38.4V320H486.4v12.8A38.44,38.44,0,0,1,448,371.2ZM25.6,294.4V89.6A38.44,38.44,0,0,1,64,51.2H448a38.44,38.44,0,0,1,38.4,38.4V294.4Z"/><circle class="cls-1" cx="256" cy="345.6" r="12.8"/></svg>