<svg width="30" height="30" viewBox="0 0 30 30" fill="none" xmlns="http://www.w3.org/2000/svg">
<path fill-rule="evenodd" clip-rule="evenodd" d="M29.146 14.2866C28.9599 6.8207 22.8072 0.833496 15.2482 0.833496C7.77194 0.833496 1.68131 6.68627 1.35041 14.0281C1.34007 14.2349 1.34007 14.4314 1.34007 14.6382C1.34007 17.2441 2.07425 19.6845 3.33581 21.7629L0.833374 29.1668L8.53714 26.7161C10.5329 27.8122 12.8182 28.4327 15.2586 28.4327C22.9416 28.4327 29.1667 22.2489 29.1667 14.6279C29.1564 14.5245 29.1564 14.4004 29.146 14.2866ZM15.2482 26.2404C12.8699 26.2404 10.6673 25.5373 8.81635 24.3171L4.32851 25.7544L5.78655 21.4424C4.39056 19.5294 3.5633 17.182 3.5633 14.6382C3.5633 14.2556 3.58398 13.8834 3.62534 13.5111C4.19408 7.63761 9.19894 3.03606 15.2586 3.03606C21.4009 3.03606 26.4471 7.7617 26.9125 13.7386C26.9435 14.0385 26.9538 14.3383 26.9538 14.6486C26.9435 21.0391 21.6904 26.2404 15.2482 26.2404Z" fill="white"/>
<path fill-rule="evenodd" clip-rule="evenodd" d="M21.618 17.4302C21.2768 17.2647 19.6016 16.4375 19.2914 16.334C18.9811 16.2203 18.7536 16.1686 18.5262 16.4995C18.2987 16.8407 17.6369 17.5956 17.4404 17.8231C17.2336 18.0506 17.0474 18.0816 16.6959 17.9058C16.3546 17.7404 15.2585 17.3888 13.9556 16.2306C12.9422 15.3413 12.2597 14.2349 12.0633 13.8937C11.8668 13.5524 12.0426 13.3766 12.208 13.2008C12.3631 13.0457 12.5493 12.8079 12.7251 12.6114C12.7664 12.5494 12.8078 12.4977 12.8491 12.446C12.9319 12.3219 12.9836 12.2081 13.0663 12.0427C13.18 11.8152 13.1283 11.6187 13.0353 11.4533C12.9526 11.2878 12.2701 9.61264 11.9805 8.9405C11.7013 8.26836 11.4118 8.38209 11.2153 8.38209C11.0189 8.38209 10.7914 8.35107 10.5639 8.35107C10.3364 8.35107 9.96411 8.4338 9.65389 8.77504C9.34367 9.11628 8.46472 9.93321 8.46472 11.598C8.46472 11.991 8.5371 12.3839 8.64051 12.7458C8.98175 13.935 9.72627 14.9174 9.8607 15.0932C10.0261 15.3103 12.2184 18.8468 15.6825 20.2014C19.1569 21.5457 19.1569 21.1011 19.7774 21.039C20.3978 20.9873 21.7938 20.2221 22.073 19.4259C22.3625 18.64 22.3625 17.9575 22.2798 17.8127C22.1867 17.6783 21.9593 17.5956 21.618 17.4302Z" fill="white"/>
</svg>
